<svg width="500" height="500" viewBox="0 0 500 500" fill="none" xmlns="http://www.w3.org/2000/svg">
<path d="M250.29 0.00300358C112.087 -0.67214 -0.576039 112.559 0.00221605 251.156C0.580471 385.028 108.136 499.223 248.266 499.995C387.626 500.863 500.193 388.693 500 250.095C499.711 108.894 385.216 -0.286344 250.29 0.00300358ZM249.037 487.939C115.075 487.36 11.1818 377.601 12.0492 247.877C12.9166 118.057 119.123 12.0591 250.001 12.0591C381.554 12.0591 487.76 118.442 487.856 250.192C487.953 381.556 380.976 488.518 249.037 487.939Z" fill="#51D5FF"/>
<path d="M390.228 302.757C378.566 295.33 366.808 287.903 354.183 282.213C329.125 270.928 303.49 260.898 278.046 250.385C276.312 249.613 274.577 248.649 272.938 247.781C273.035 247.395 273.228 247.009 273.324 246.72C274.77 246.72 276.215 246.334 277.564 246.816C283.54 248.745 288.937 247.202 293.948 244.019C299.731 240.451 305.513 236.882 310.814 232.735C340.98 209.105 358.038 178.723 356.882 139.565C356.4 123.361 350.81 109.28 338.378 98.574C320.644 83.335 300.406 73.4972 276.89 71.086C257.422 69.0605 239.111 72.0505 222.919 84.2031C203.162 98.9598 193.621 119.407 189.284 142.844C188.706 146.123 188.802 149.499 188.706 152.682C201.62 155.672 206.15 158.469 207.307 164.063C202.873 161.845 198.633 159.24 193.91 157.504C187.839 155.19 182.442 159.24 183.309 165.51C183.694 168.5 185.718 171.393 187.549 173.997C189.959 177.469 192.85 180.556 195.934 184.221C193.718 184.414 192.368 184.51 190.152 184.703C192.465 190.779 194.007 196.47 196.609 201.678C202.199 212.866 208.367 223.765 214.246 234.857C216.848 239.679 216.366 241.029 211.451 243.44C192.465 252.603 173.479 261.573 154.589 270.832C135.603 280.091 117.195 290.122 101.968 305.264C93.1012 314.138 92.9085 315.584 100.329 325.615C118.448 350.113 139.94 371.525 162.01 392.454C163.745 394.094 166.058 395.155 168.274 396.602C169.913 394.48 171.262 392.744 173.189 390.043C172.9 395.734 171.937 400.17 172.611 404.414C173.286 408.754 175.406 412.902 176.852 417.145C176.466 417.435 176.177 417.628 175.792 417.917C174.346 415.795 172.804 413.77 171.551 411.551C170.298 409.236 169.238 406.729 168.178 404.318C166.732 401.038 164.034 398.627 160.661 399.592C157.095 400.556 157.287 404.318 157.48 407.5C158.348 417.435 166.636 425.826 177.045 427.272C184.369 428.333 186.104 426.79 186.104 419.46C186.104 405.861 185.911 392.358 186.104 378.759C186.2 373.936 184.369 370.946 180.032 368.535C157.769 356.382 137.723 341.24 120.472 322.529C112.955 314.331 112.955 313.173 122.399 307.579C148.132 292.437 174.057 277.487 199.693 262.152C202.873 260.223 205.283 256.847 207.788 253.857C208.559 252.892 208.752 251.446 209.234 250.192C209.909 250.771 210.68 251.253 211.354 251.832C211.162 253.182 211.162 254.629 210.872 255.979C209.716 260.705 208.27 265.334 207.21 270.06C202.584 290.411 196.223 310.569 194.007 331.209C190.826 360.723 190.633 390.525 189.284 420.232C188.995 426.212 191.694 428.623 198.054 428.719C229.666 429.009 261.373 429.201 292.985 429.394C297.707 429.394 299.731 427.176 298.574 422.546C298.093 420.521 296.647 418.496 295.105 417.145C290.479 412.902 287.877 407.79 287.877 401.617C287.877 396.505 288.551 391.297 288.455 386.185C288.359 380.687 288.648 374.901 287.202 369.596C281.13 346.834 274.866 324.072 273.709 300.442C273.228 289.929 274.288 279.32 275.059 268.71C275.444 264.177 276.986 263.502 281.323 264.852C282.287 265.142 283.251 265.527 284.214 265.817C307.055 273.918 328.836 284.142 349.943 296.005C358.424 300.731 366.808 305.747 374.518 311.63C383.674 318.671 383.096 322.625 373.169 328.701C351.003 342.204 329.029 355.9 306.67 368.921C294.43 376.058 289.13 385.799 290.961 399.592C291.924 406.922 293.948 413.866 301.562 417.242C311.392 421.678 325.945 417.531 332.017 408.658C336.354 402.389 337.125 394.094 333.848 389.175C328.547 389.754 329.511 395.541 326.138 398.82C323.343 392.165 320.741 385.992 318.139 379.723C318.524 379.53 318.813 379.241 319.199 379.048C321.897 381.845 324.499 384.642 327.487 387.825C339.052 379.241 350.81 371.332 361.604 362.362C375 351.078 387.722 339.022 400.54 327.062C404.684 323.204 405.455 319.057 402.371 315.199C398.805 310.858 395.047 305.843 390.228 302.757ZM324.981 161.845C326.62 162.906 327.873 165.799 327.969 168.017C328.258 173.129 319.488 184.028 311.971 185.185C313.224 183.739 314.476 182.195 315.729 180.749C318.139 177.855 320.934 175.058 322.957 171.875C324.018 170.139 324.499 166.763 323.536 165.606C322.476 164.256 319.199 163.774 317.271 164.256C313.416 165.124 309.85 167.053 306.188 168.403C305.513 168.692 304.839 168.789 303.971 168.982C307.055 162.037 319.006 157.89 324.981 161.845ZM274.866 126.737C270.144 125.097 266.096 123.651 260.891 121.818C268.698 119.118 272.746 120.564 274.866 126.737ZM268.312 134.26C272.746 134.26 275.83 137.347 275.83 141.687C275.926 145.93 272.264 149.692 268.12 149.596C263.879 149.499 260.41 145.738 260.506 141.59C260.602 137.347 263.975 134.164 268.312 134.26ZM254.049 142.555C253.952 146.509 249.808 150.367 245.857 150.174C241.713 149.885 238.436 146.316 238.629 142.265C238.821 138.118 242.773 134.357 246.724 134.549C250.579 134.839 254.145 138.697 254.049 142.555ZM251.254 114.681C245.76 115.742 241.134 116.706 235.834 117.671C239.111 111.402 246.05 109.955 251.254 114.681ZM218.101 227.333C229.569 237.557 242.484 241.511 258 236.014C250.097 246.72 224.172 240.836 218.101 227.333ZM208.27 184.607C204.993 181.231 201.813 177.759 198.729 174.19C198.054 173.418 197.573 172.358 196.994 171.489C197.38 171.104 197.765 170.718 198.151 170.332C199.5 171.393 200.946 172.454 202.295 173.611C208.559 179.398 214.053 186.343 221.185 190.683C242.58 203.511 264.554 201.292 285.756 189.622C292.599 185.86 298.863 181.134 305.417 176.891C307.055 175.83 308.887 174.865 310.621 173.901C310.91 174.19 311.2 174.479 311.489 174.769C310.332 176.215 309.368 178.048 308.019 179.205C294.623 189.911 280.167 198.399 262.915 201.389C241.905 204.861 223.401 199.942 208.27 184.607Z" fill="#51D5FF"/>
</svg>
