<?xml version="1.0" encoding="utf-8"?>
<!-- Generator: Adobe Illustrator 23.0.5, SVG Export Plug-In . SVG Version: 6.00 Build 0)  -->
<svg version="1.1" id="Layer_1" xmlns="http://www.w3.org/2000/svg" xmlns:xlink="http://www.w3.org/1999/xlink" x="0px" y="0px"
	 viewBox="0 0 800 800" style="enable-background:new 0 0 800 800;" xml:space="preserve">
<g>
	<path d="M403.1,137.7C259.7,137,142.8,254.4,143.4,398.1c0.6,138.8,112.2,257.2,257.6,258C545.6,657,662.4,540.7,662.2,397
		C661.9,250.6,543.1,137.4,403.1,137.7z M401.8,643.6c-139-0.6-246.8-114.4-245.9-248.9c0.9-134.6,111.1-244.5,246.9-244.5
		c136.5,0,246.7,110.3,246.8,246.9C649.7,533.3,538.7,644.2,401.8,643.6z"/>
	<path d="M548.3,451.6c-12.1-7.7-24.3-15.4-37.4-21.3c-26-11.7-52.6-22.1-79-33c-1.8-0.8-3.6-1.8-5.3-2.7c0.1-0.4,0.3-0.8,0.4-1.1
		c1.5,0,3-0.4,4.4,0.1c6.2,2,11.8,0.4,17-2.9c6-3.7,12-7.4,17.5-11.7c31.3-24.5,49-56,47.8-96.6c-0.5-16.8-6.3-31.4-19.2-42.5
		c-18.4-15.8-39.4-26-63.8-28.5c-20.2-2.1-39.2,1-56,13.6c-20.5,15.3-30.4,36.5-34.9,60.8c-0.6,3.4-0.5,6.9-0.6,10.2
		c13.4,3.1,18.1,6,19.3,11.8c-4.6-2.3-9-5-13.9-6.8c-6.3-2.4-11.9,1.8-11,8.3c0.4,3.1,2.5,6.1,4.4,8.8c2.5,3.6,5.5,6.8,8.7,10.6
		c-2.3,0.2-3.7,0.3-6,0.5c2.4,6.3,4,12.2,6.7,17.6c5.8,11.6,12.2,22.9,18.3,34.4c2.7,5,2.2,6.4-2.9,8.9c-19.7,9.5-39.4,18.8-59,28.4
		c-19.7,9.6-38.8,20-54.6,35.7c-9.2,9.2-9.4,10.7-1.7,21.1c18.8,25.4,41.1,47.6,64,69.3c1.8,1.7,4.2,2.8,6.5,4.3
		c1.7-2.2,3.1-4,5.1-6.8c-0.3,5.9-1.3,10.5-0.6,14.9c0.7,4.5,2.9,8.8,4.4,13.2c-0.4,0.3-0.7,0.5-1.1,0.8c-1.5-2.2-3.1-4.3-4.4-6.6
		c-1.3-2.4-2.4-5-3.5-7.5c-1.5-3.4-4.3-5.9-7.8-4.9c-3.7,1-3.5,4.9-3.3,8.2c0.9,10.3,9.5,19,20.3,20.5c7.6,1.1,9.4-0.5,9.4-8.1
		c0-14.1-0.2-28.1,0-42.2c0.1-5-1.8-8.1-6.3-10.6c-23.1-12.6-43.9-28.3-61.8-47.7c-7.8-8.5-7.8-9.7,2-15.5
		c26.7-15.7,53.6-31.2,80.2-47.1c3.3-2,5.8-5.5,8.4-8.6c0.8-1,1-2.5,1.5-3.8c0.7,0.6,1.5,1.1,2.2,1.7c-0.2,1.4-0.2,2.9-0.5,4.3
		c-1.2,4.9-2.7,9.7-3.8,14.6c-4.8,21.1-11.4,42-13.7,63.4c-3.3,30.6-3.5,61.5-4.9,92.3c-0.3,6.2,2.5,8.7,9.1,8.8
		c32.8,0.3,65.7,0.5,98.5,0.7c4.9,0,7-2.3,5.8-7.1c-0.5-2.1-2-4.2-3.6-5.6c-4.8-4.4-7.5-9.7-7.5-16.1c0-5.3,0.7-10.7,0.6-16
		c-0.1-5.7,0.2-11.7-1.3-17.2c-6.3-23.6-12.8-47.2-14-71.7c-0.5-10.9,0.6-21.9,1.4-32.9c0.4-4.7,2-5.4,6.5-4c1,0.3,2,0.7,3,1
		c23.7,8.4,46.3,19,68.2,31.3c8.8,4.9,17.5,10.1,25.5,16.2c9.5,7.3,8.9,11.4-1.4,17.7c-23,14-45.8,28.2-69,41.7
		c-12.7,7.4-18.2,17.5-16.3,31.8c1,7.6,3.1,14.8,11,18.3c10.2,4.6,25.3,0.3,31.6-8.9c4.5-6.5,5.3-15.1,1.9-20.2
		c-5.5,0.6-4.5,6.6-8,10c-2.9-6.9-5.6-13.3-8.3-19.8c0.4-0.2,0.7-0.5,1.1-0.7c2.8,2.9,5.5,5.8,8.6,9.1c12-8.9,24.2-17.1,35.4-26.4
		c13.9-11.7,27.1-24.2,40.4-36.6c4.3-4,5.1-8.3,1.9-12.3C557.2,460,553.3,454.8,548.3,451.6z M480.6,305.5c1.7,1.1,3,4.1,3.1,6.4
		c0.3,5.3-8.8,16.6-16.6,17.8c1.3-1.5,2.6-3.1,3.9-4.6c2.5-3,5.4-5.9,7.5-9.2c1.1-1.8,1.6-5.3,0.6-6.5c-1.1-1.4-4.5-1.9-6.5-1.4
		c-4,0.9-7.7,2.9-11.5,4.3c-0.7,0.3-1.4,0.4-2.3,0.6C462,305.7,474.4,301.4,480.6,305.5z M428.6,269.1c-4.9-1.7-9.1-3.2-14.5-5.1
		C422.2,261.2,426.4,262.7,428.6,269.1z M421.8,276.9c4.6,0,7.8,3.2,7.8,7.7c0.1,4.4-3.7,8.3-8,8.2c-4.4-0.1-8-4-7.9-8.3
		C413.8,280.1,417.3,276.8,421.8,276.9z M407,285.5c-0.1,4.1-4.4,8.1-8.5,7.9c-4.3-0.3-7.7-4-7.5-8.2c0.2-4.3,4.3-8.2,8.4-8
		C403.4,277.5,407.1,281.5,407,285.5z M404.1,256.6c-5.7,1.1-10.5,2.1-16,3.1C391.5,253.2,398.7,251.7,404.1,256.6z M369.7,373.4
		c11.9,10.6,25.3,14.7,41.4,9C402.9,393.5,376,387.4,369.7,373.4z M359.5,329.1c-3.4-3.5-6.7-7.1-9.9-10.8c-0.7-0.8-1.2-1.9-1.8-2.8
		c0.4-0.4,0.8-0.8,1.2-1.2c1.4,1.1,2.9,2.2,4.3,3.4c6.5,6,12.2,13.2,19.6,17.7c22.2,13.3,45,11,67-1.1c7.1-3.9,13.6-8.8,20.4-13.2
		c1.7-1.1,3.6-2.1,5.4-3.1c0.3,0.3,0.6,0.6,0.9,0.9c-1.2,1.5-2.2,3.4-3.6,4.6c-13.9,11.1-28.9,19.9-46.8,23
		C394.4,350.1,375.2,345,359.5,329.1z"/>
</g>
</svg>
